<svg width="23" height="19" viewBox="0 0 23 19" fill="none" xmlns="http://www.w3.org/2000/svg">
<path d="M23 2.25696C22.1542 2.62797 21.2337 2.89498 20.2857 2.99897C21.27 2.40434 22.0071 1.46492 22.3587 0.356964C21.4351 0.915691 20.4232 1.30748 19.368 1.51495C18.927 1.03553 18.3936 0.6536 17.801 0.392961C17.2085 0.132323 16.5695 -0.00143844 15.9239 1.16653e-05C13.3119 1.16653e-05 11.2112 2.15297 11.2112 4.79498C11.2112 5.16599 11.2554 5.53699 11.3272 5.89394C7.41606 5.68596 3.92777 3.78596 1.6087 0.876934C1.18614 1.61084 0.964705 2.44647 0.967432 3.2969C0.967432 4.96081 1.79942 6.42797 3.06814 7.29084C2.32047 7.26089 1.5903 7.05193 0.937027 6.68092V6.73995C0.937027 9.06998 2.55678 11.0009 4.71554 11.445C4.31021 11.552 3.89324 11.6068 3.47446 11.608C3.16765 11.608 2.87742 11.5771 2.58442 11.5349C3.18147 13.4349 4.92008 14.8149 6.99039 14.8599C5.37063 16.15 3.34179 16.9089 1.13881 16.9089C0.743541 16.9089 0.37868 16.8948 0 16.8499C2.08965 18.213 4.56904 19 7.23915 19C15.9073 19 20.6505 11.6979 20.6505 5.35992C20.6505 5.15193 20.6505 4.94394 20.6367 4.73596C21.5544 4.05297 22.3587 3.20696 23 2.25696Z" fill="#D8C16B"/>
</svg>
